<svg xmlns="http://www.w3.org/2000/svg" viewBox="0 0 32 32" fill="none">
  <rect width="32" height="32" rx="8" fill="#BC6C25"/>
  <path d="M15.584 6.376a.75.75 0 0 1 .832 0l9 6a.75.75 0 1 1-.832 1.248L16 7.901l-8.584 5.723a.75.75 0 0 1-.832-1.248l9-6Z" fill="white"/>
  <path fill-rule="evenodd" d="M24.25 14.332v9.918H25a.75.75 0 0 1 0 1.5H7a.75.75 0 0 1 0-1.5h.75v-9.918a.75.75 0 0 1 .634-.74A49.109 49.109 0 0 1 16 13c2.59 0 5.134.202 7.616.592a.75.75 0 0 1 .634.74Zm-7.5 2.418a.75.75 0 0 0-1.5 0v6.75a.75.75 0 0 0 1.5 0v-6.75Zm3-.75a.75.75 0 0 1 .75.75v6.75a.75.75 0 0 1-1.5 0v-6.75a.75.75 0 0 1 .75-.75ZM13 16.75a.75.75 0 0 0-1.5 0v6.75a.75.75 0 0 0 1.5 0v-6.75Z" clip-rule="evenodd" fill="white"/>
</svg>
